<svg width="25" height="21" viewBox="0 0 25 21" fill="none" xmlns="http://www.w3.org/2000/svg">
<path d="M11.2165 19.4341C16.1848 19.4341 20.2123 15.332 20.2123 10.2717C20.2123 5.21149 16.1848 1.10934 11.2165 1.10934C6.24828 1.10934 2.22073 5.21149 2.22073 10.2717C2.22073 15.332 6.24828 19.4341 11.2165 19.4341Z" fill="#0B3D91"/>
<path d="M10.6016 3.92541C10.6573 3.92541 10.7024 3.87942 10.7024 3.82269C10.7024 3.76596 10.6573 3.71997 10.6016 3.71997C10.5459 3.71997 10.5007 3.76596 10.5007 3.82269C10.5007 3.87942 10.5459 3.92541 10.6016 3.92541Z" fill="white"/>
<path d="M11.6369 4.06237C11.6926 4.06237 11.7378 4.01638 11.7378 3.95965C11.7378 3.90292 11.6926 3.85693 11.6369 3.85693C11.5813 3.85693 11.5361 3.90292 11.5361 3.95965C11.5361 4.01638 11.5813 4.06237 11.6369 4.06237Z" fill="white"/>
<path d="M12.9951 5.92498C13.0508 5.92498 13.0959 5.87899 13.0959 5.82226C13.0959 5.76553 13.0508 5.71954 12.9951 5.71954C12.9394 5.71954 12.8942 5.76553 12.8942 5.82226C12.8942 5.87899 12.9394 5.92498 12.9951 5.92498Z" fill="white"/>
<path d="M5.54563 15.5119C5.60133 15.5119 5.64648 15.4659 5.64648 15.4092C5.64648 15.3525 5.60133 15.3065 5.54563 15.3065C5.48993 15.3065 5.44478 15.3525 5.44478 15.4092C5.44478 15.4659 5.48993 15.5119 5.54563 15.5119Z" fill="white"/>
<path d="M5.80787 16.3337C5.86356 16.3337 5.90872 16.2877 5.90872 16.231C5.90872 16.1742 5.86356 16.1282 5.80787 16.1282C5.75217 16.1282 5.70702 16.1742 5.70702 16.231C5.70702 16.2877 5.75217 16.3337 5.80787 16.3337Z" fill="white"/>
<path d="M4.55729 15.6094C4.59901 15.6094 4.63282 15.575 4.63282 15.5325C4.63282 15.49 4.59901 15.4556 4.55729 15.4556C4.51558 15.4556 4.48177 15.49 4.48177 15.5325C4.48177 15.575 4.51558 15.6094 4.55729 15.6094Z" fill="white"/>
<path d="M8.65852 17.2239C8.70035 17.2239 8.73427 17.1893 8.73427 17.1467C8.73427 17.1041 8.70035 17.0696 8.65852 17.0696C8.61668 17.0696 8.58277 17.1041 8.58277 17.1467C8.58277 17.1893 8.61668 17.2239 8.65852 17.2239Z" fill="white"/>
<path d="M15.091 15.8628C15.1327 15.8628 15.1665 15.8283 15.1665 15.7858C15.1665 15.7434 15.1327 15.7089 15.091 15.7089C15.0493 15.7089 15.0154 15.7434 15.0154 15.7858C15.0154 15.8283 15.0493 15.8628 15.091 15.8628Z" fill="white"/>
<path d="M16.9603 13.795C17.0021 13.795 17.036 13.7604 17.036 13.7178C17.036 13.6752 17.0021 13.6407 16.9603 13.6407C16.9185 13.6407 16.8845 13.6752 16.8845 13.7178C16.8845 13.7604 16.9185 13.795 16.9603 13.795Z" fill="white"/>
<path d="M7.79794 6.49996C7.83965 6.49996 7.87346 6.46552 7.87346 6.42304C7.87346 6.38056 7.83965 6.34612 7.79794 6.34612C7.75623 6.34612 7.72241 6.38056 7.72241 6.42304C7.72241 6.46552 7.75623 6.49996 7.79794 6.49996Z" fill="white"/>
<path d="M9.85527 4.96102C9.89698 4.96102 9.9308 4.92658 9.9308 4.8841C9.9308 4.84161 9.89698 4.80717 9.85527 4.80717C9.81356 4.80717 9.77975 4.84161 9.77975 4.8841C9.77975 4.92658 9.81356 4.96102 9.85527 4.96102Z" fill="white"/>
<path d="M9.63184 4.81037C9.67355 4.81037 9.70737 4.77593 9.70737 4.73345C9.70737 4.69096 9.67355 4.65652 9.63184 4.65652C9.59013 4.65652 9.55631 4.69096 9.55631 4.73345C9.55631 4.77593 9.59013 4.81037 9.63184 4.81037Z" fill="white"/>
<path d="M9.43015 4.65972C9.47186 4.65972 9.50568 4.62528 9.50568 4.5828C9.50568 4.54031 9.47186 4.50587 9.43015 4.50587C9.38844 4.50587 9.35463 4.54031 9.35463 4.5828C9.35463 4.62528 9.38844 4.65972 9.43015 4.65972Z" fill="white"/>
<path d="M8.12069 6.89736C8.1624 6.89736 8.19621 6.86292 8.19621 6.82044C8.19621 6.77796 8.1624 6.74352 8.12069 6.74352C8.07898 6.74352 8.04516 6.77796 8.04516 6.82044C8.04516 6.86292 8.07898 6.89736 8.12069 6.89736Z" fill="white"/>
<path d="M11.1511 2.89298C11.1928 2.89298 11.2266 2.85854 11.2266 2.81606C11.2266 2.77358 11.1928 2.73914 11.1511 2.73914C11.1094 2.73914 11.0756 2.77358 11.0756 2.81606C11.0756 2.85854 11.1094 2.89298 11.1511 2.89298Z" fill="white"/>
<path d="M11.6489 5.11167C11.6906 5.11167 11.7244 5.07723 11.7244 5.03475C11.7244 4.99226 11.6906 4.95782 11.6489 4.95782C11.6071 4.95782 11.5733 4.99226 11.5733 5.03475C11.5733 5.07723 11.6071 5.11167 11.6489 5.11167Z" fill="white"/>
<path d="M10.8638 4.67844C10.9055 4.67844 10.9393 4.644 10.9393 4.60152C10.9393 4.55904 10.9055 4.5246 10.8638 4.5246C10.822 4.5246 10.7882 4.55904 10.7882 4.60152C10.7882 4.644 10.822 4.67844 10.8638 4.67844Z" fill="white"/>
<path d="M9.51913 5.26759C9.56084 5.26759 9.59466 5.23315 9.59466 5.19066C9.59466 5.14818 9.56084 5.11374 9.51913 5.11374C9.47742 5.11374 9.44361 5.14818 9.44361 5.19066C9.44361 5.23315 9.47742 5.26759 9.51913 5.26759Z" fill="white"/>
<path d="M15.4491 17.895C15.4908 17.895 15.5246 17.8605 15.5246 17.818C15.5246 17.7756 15.4908 17.7411 15.4491 17.7411C15.4074 17.7411 15.3736 17.7756 15.3736 17.818C15.3736 17.8605 15.4074 17.895 15.4491 17.895Z" fill="white"/>
<path d="M5.41791 16.0068C5.45974 16.0068 5.49366 15.9723 5.49366 15.9296C5.49366 15.887 5.45974 15.8525 5.41791 15.8525C5.37607 15.8525 5.34216 15.887 5.34216 15.9296C5.34216 15.9723 5.37607 16.0068 5.41791 16.0068Z" fill="white"/>
<path d="M10.6755 16.9997C10.7174 16.9997 10.7513 16.9652 10.7513 16.9226C10.7513 16.88 10.7174 16.8454 10.6755 16.8454C10.6337 16.8454 10.5998 16.88 10.5998 16.9226C10.5998 16.9652 10.6337 16.9997 10.6755 16.9997Z" fill="white"/>
<path d="M6.98263 15.9452C7.02446 15.9452 7.05838 15.9106 7.05838 15.868C7.05838 15.8254 7.02446 15.7909 6.98263 15.7909C6.94079 15.7909 6.90688 15.8254 6.90688 15.868C6.90688 15.9106 6.94079 15.9452 6.98263 15.9452Z" fill="white"/>
<path d="M7.63657 17.0324C7.6784 17.0324 7.71232 16.9978 7.71232 16.9552C7.71232 16.9126 7.6784 16.8781 7.63657 16.8781C7.59473 16.8781 7.56082 16.9126 7.56082 16.9552C7.56082 16.9978 7.59473 17.0324 7.63657 17.0324Z" fill="white"/>
<path d="M12.4505 16.3474C12.4922 16.3474 12.526 16.3129 12.526 16.2704C12.526 16.228 12.4922 16.1935 12.4505 16.1935C12.4088 16.1935 12.375 16.228 12.375 16.2704C12.375 16.3129 12.4088 16.3474 12.4505 16.3474Z" fill="white"/>
<path d="M15.1044 14.8219C15.1461 14.8219 15.1799 14.7875 15.1799 14.745C15.1799 14.7025 15.1461 14.668 15.1044 14.668C15.0627 14.668 15.0289 14.7025 15.0289 14.745C15.0289 14.7875 15.0627 14.8219 15.1044 14.8219Z" fill="white"/>
<path d="M17.1165 15.7582C17.1582 15.7582 17.192 15.7238 17.192 15.6813C17.192 15.6388 17.1582 15.6044 17.1165 15.6044C17.0748 15.6044 17.041 15.6388 17.041 15.6813C17.041 15.7238 17.0748 15.7582 17.1165 15.7582Z" fill="white"/>
<path d="M17.8023 16.2052C17.844 16.2052 17.8778 16.1707 17.8778 16.1282C17.8778 16.0858 17.844 16.0513 17.8023 16.0513C17.7605 16.0513 17.7267 16.0858 17.7267 16.1282C17.7267 16.1707 17.7605 16.2052 17.8023 16.2052Z" fill="white"/>
<path d="M17.915 14.9862C17.9567 14.9862 17.9905 14.9518 17.9905 14.9093C17.9905 14.8668 17.9567 14.8324 17.915 14.8324C17.8733 14.8324 17.8394 14.8668 17.8394 14.9093C17.8394 14.9518 17.8733 14.9862 17.915 14.9862Z" fill="white"/>
<path d="M7.91046 13.2606C7.95217 13.2606 7.98599 13.2262 7.98599 13.1837C7.98599 13.1412 7.95217 13.1068 7.91046 13.1068C7.86875 13.1068 7.83494 13.1412 7.83494 13.1837C7.83494 13.2262 7.86875 13.2606 7.91046 13.2606Z" fill="white"/>
<path d="M7.93912 15.0531C7.99482 15.0531 8.03997 15.0071 8.03997 14.9504C8.03997 14.8937 7.99482 14.8477 7.93912 14.8477C7.88343 14.8477 7.83827 14.8937 7.83827 14.9504C7.83827 15.0071 7.88343 15.0531 7.93912 15.0531Z" fill="white"/>
<path d="M8.54425 16.3542C8.59994 16.3542 8.6451 16.3082 8.6451 16.2515C8.6451 16.1948 8.59994 16.1488 8.54425 16.1488C8.48855 16.1488 8.4434 16.1948 8.4434 16.2515C8.4434 16.3082 8.48855 16.3542 8.54425 16.3542Z" fill="white"/>
<path d="M15.792 14.9983C15.8477 14.9983 15.8928 14.9524 15.8928 14.8956C15.8928 14.8389 15.8477 14.7929 15.792 14.7929C15.7363 14.7929 15.6911 14.8389 15.6911 14.8956C15.6911 14.9524 15.7363 14.9983 15.792 14.9983Z" fill="white"/>
<path d="M18.4006 14.8477C18.4563 14.8477 18.5015 14.8017 18.5015 14.745C18.5015 14.6882 18.4563 14.6423 18.4006 14.6423C18.3449 14.6423 18.2998 14.6882 18.2998 14.745C18.2998 14.8017 18.3449 14.8477 18.4006 14.8477Z" fill="white"/>
<path d="M17.1097 14.2862C17.1654 14.2862 17.2106 14.2402 17.2106 14.1835C17.2106 14.1267 17.1654 14.0807 17.1097 14.0807C17.054 14.0807 17.0089 14.1267 17.0089 14.1835C17.0089 14.2402 17.054 14.2862 17.1097 14.2862Z" fill="white"/>
<path d="M15.792 14.341C15.8477 14.341 15.8928 14.295 15.8928 14.2382C15.8928 14.1815 15.8477 14.1355 15.792 14.1355C15.7363 14.1355 15.6911 14.1815 15.6911 14.2382C15.6911 14.295 15.7363 14.341 15.792 14.341Z" fill="white"/>
<path d="M13.0737 3.75831L13.3245 3.73389L13.0742 3.71951C13.0663 3.67021 13.0276 3.63163 12.9787 3.62524L12.9547 3.37096L12.9404 3.62729C12.8951 3.63756 12.8604 3.67614 12.8548 3.72408L12.5984 3.74781L12.8566 3.76197C12.866 3.80602 12.9009 3.84049 12.9449 3.84871L12.9682 4.11075L12.9818 3.84916C13.0282 3.84117 13.065 3.80488 13.0737 3.75831Z" fill="white"/>
<path d="M8.8412 6.60199L9.09198 6.57756L8.84165 6.56318C8.83403 6.51388 8.79503 6.4753 8.74618 6.46891L8.7222 6.21463L8.70808 6.47097C8.66258 6.48124 8.62785 6.51982 8.62224 6.56775L8.36586 6.59149L8.62404 6.60564C8.63345 6.6497 8.66841 6.68416 8.71234 6.69238L8.73564 6.95442L8.74954 6.69284C8.79593 6.68508 8.83268 6.64855 8.8412 6.60199Z" fill="white"/>
<path d="M18.2169 14.1205L18.4676 14.096L18.2173 14.0816C18.2097 14.0323 18.1707 13.9938 18.1218 13.9874L18.0978 13.7331L18.0837 13.9894C18.0385 13.9997 18.0037 14.0383 17.9981 14.0862L17.7417 14.11L17.9999 14.1241C18.0093 14.1682 18.0443 14.2026 18.0882 14.2108L18.1115 14.4729L18.1254 14.2113C18.1714 14.2035 18.2081 14.1672 18.2169 14.1205Z" fill="white"/>
<path d="M7.99404 18.0516L8.24482 18.0271L7.99449 18.0128C7.98665 17.9634 7.94788 17.9249 7.89902 17.9185L7.87504 17.6644L7.86092 17.9205C7.81543 17.9308 7.78069 17.9694 7.77509 18.0173L7.51871 18.0411L7.77688 18.0552C7.78629 18.0993 7.82126 18.134 7.86518 18.1419L7.88849 18.404L7.90238 18.1424C7.94855 18.1346 7.98553 18.0981 7.99404 18.0516Z" fill="white"/>
<path d="M17.4201 16.1342L17.6709 16.1097L17.4206 16.0954C17.413 16.0461 17.374 16.0075 17.3251 16.0011L17.3011 15.7468L17.287 16.0029C17.2417 16.0132 17.207 16.0518 17.2014 16.0997L16.945 16.1234L17.2032 16.1376C17.2126 16.1816 17.2476 16.2161 17.2915 16.2243L17.3148 16.4864L17.3287 16.2248C17.3746 16.2173 17.4116 16.1807 17.4201 16.1342Z" fill="white"/>
<path d="M13.266 9.03046C12.2201 9.44453 11.1999 9.81408 10.3391 10.0885C8.58995 10.6463 3.80407 12.1565 0.913044 14.0602L1.15508 14.1561C2.91659 13.1426 4.06157 12.8242 5.16218 12.4715C6.35893 12.088 10.2278 11.1658 11.9796 10.6637C12.5715 10.4941 13.2647 10.272 13.9989 10.0017C13.8281 9.75907 13.6479 9.51575 13.4583 9.27288C13.3949 9.19093 13.3306 9.11013 13.266 9.03046ZM14.5439 10.8244C14.2907 10.9985 14.0784 11.1375 13.9298 11.2252C13.0693 11.7319 8.87368 14.6491 7.91919 15.3202C6.9647 15.9913 4.31549 18.5387 3.53559 19.2782L3.50869 19.5793C6.02322 17.2784 6.81208 16.711 7.81162 15.9365C9.04871 14.9778 11.6078 13.2042 12.4776 12.6358C13.3091 12.0926 14.0589 11.5929 14.7319 11.1357C14.721 11.117 14.71 11.0983 14.699 11.0793C14.6483 10.9946 14.5966 10.9097 14.5439 10.8244ZM18.4746 6.59606C17.2496 7.32741 15.3189 8.21009 13.4458 8.95902C13.4906 9.01494 13.5352 9.07132 13.5796 9.12816C13.7889 9.3966 13.9863 9.66686 14.1721 9.93735C15.6445 9.38495 17.2601 8.64356 18.542 7.74627C17.9313 8.33564 15.9123 9.87252 14.6813 10.7292C14.7447 10.8344 14.8061 10.9396 14.8655 11.0444C16.7305 9.77323 17.9856 8.83758 18.7168 8.21192C19.7253 7.34909 22.0247 5.41801 22.8987 2.82953C21.3656 4.81563 19.553 5.95214 18.4746 6.59606Z" fill="#FC3D21"/>
<path d="M9.97519 13.4939C9.77685 13.2396 9.50254 12.899 9.29658 12.6349C9.02115 12.2818 8.76633 11.925 8.53281 11.5687C8.45661 11.5881 8.38064 11.6075 8.30467 11.6269C8.5866 12.075 8.89968 12.5224 9.24078 12.9597C9.48999 13.2793 9.71656 13.5366 9.83265 13.6966C9.85618 13.729 9.9028 13.8007 9.96577 13.8961C10.0384 13.8459 10.1117 13.7952 10.1856 13.7441C10.1141 13.6648 10.0435 13.5815 9.97519 13.4939ZM11.4229 14.8324C11.26 14.6754 10.8649 14.4131 10.4537 14.0196C10.3629 14.083 10.2712 14.1474 10.1794 14.2122C10.4449 14.5934 10.8066 15.0616 11.0899 15.1981C11.5166 15.404 11.6316 15.0337 11.4229 14.8324ZM13.5796 9.12816C11.2282 6.11375 8.35576 4.45771 7.11733 5.46001C6.15544 6.23838 6.55033 8.51322 7.87617 10.9029C7.94474 10.8789 8.01265 10.8554 8.07988 10.8321C6.74172 8.50387 6.37552 6.34018 7.28272 5.60587C8.42277 4.68324 11.1755 6.34566 13.4588 9.27265C13.9314 9.87845 14.3469 10.4865 14.6988 11.0793C16.0461 13.3505 16.4596 15.4044 15.5286 16.2428C15.2438 16.4994 14.3734 16.6001 13.2331 16.0773C13.2172 16.0976 13.2427 16.1527 13.2627 16.1661C14.247 16.5692 15.1898 16.7229 15.6658 16.3378C16.8097 15.412 15.9309 12.1426 13.5796 9.12816Z" fill="white"/>
<path d="M3.49503 9.48584H5.00105L6.26503 11.6703C6.26503 11.6703 6.26503 10.0884 6.26503 9.96519C6.26503 9.77345 6.02636 9.5235 5.94231 9.48584C6.04316 9.48584 6.92392 9.48584 6.98443 9.48584C6.92056 9.50296 6.7155 9.75633 6.7155 9.96519C6.7155 10.0679 6.7155 12.3619 6.7155 12.4715C6.7155 12.6256 6.934 12.8378 7.03822 12.92H5.58598L4.30182 10.7253C4.30182 10.7253 4.30182 12.3619 4.30182 12.4509C4.30182 12.6221 4.46655 12.7865 4.63799 12.9269H3.52864C3.68664 12.8584 3.83791 12.6427 3.85136 12.4715C3.86481 12.3003 3.85136 10.0919 3.85136 9.996C3.85136 9.78714 3.65302 9.61595 3.49503 9.48584Z" fill="white"/>
<path d="M17.2711 12.92H19.2746C19.1637 12.8926 19.0393 12.7591 18.9721 12.5811C18.9049 12.403 17.8426 9.48584 17.8426 9.48584H17.0808C16.8648 9.64425 16.6333 9.81134 16.3861 9.98733C16.3854 9.99372 16.3847 10.0001 16.3836 10.0063C16.3504 10.2117 15.7543 12.4108 15.718 12.5194C15.6676 12.6701 15.4087 12.8379 15.3045 12.9269H16.3836C16.276 12.8036 16.1886 12.6838 16.2088 12.5468C16.229 12.4099 16.2895 12.1359 16.2895 12.1359H17.4056C17.456 12.2729 17.4936 12.3959 17.5131 12.5126C17.5367 12.653 17.3955 12.8105 17.2711 12.92ZM16.3903 11.6977L16.7668 10.4445L17.2644 11.6977H16.3903ZM16.2207 9.61093C16.276 9.56938 16.3316 9.52761 16.387 9.48584H16.0945C16.1236 9.51323 16.1718 9.55637 16.2207 9.61093Z" fill="white"/>
<path d="M8.55767 12.5468C8.57784 12.4099 8.63835 12.1359 8.63835 12.1359H9.75442C9.80485 12.2729 9.8425 12.3959 9.862 12.5126C9.88553 12.653 9.74434 12.8105 9.61996 12.92H11.3839C11.4207 12.8949 11.4572 12.8698 11.4937 12.8449C11.4254 12.7833 11.3624 12.6908 11.321 12.5811C11.2537 12.403 10.1914 9.48584 10.1914 9.48584H8.44338C8.52742 9.56459 8.76946 9.77687 8.73248 10.0063C8.69953 10.2117 8.10318 12.4108 8.06687 12.5194C8.01644 12.6701 7.7576 12.8379 7.65339 12.9269H8.73248C8.62491 12.8036 8.5375 12.6838 8.55767 12.5468ZM9.11571 10.4445L9.61323 11.6977H8.7392L9.11571 10.4445Z" fill="white"/>
<path d="M14.651 11.1905C14.322 11.4137 13.9749 11.6468 13.6091 11.8901C13.7732 11.9711 13.9038 12.0729 13.9164 12.2044C13.9397 12.4514 13.4525 12.5708 13.0121 12.5194C12.924 12.5091 12.8375 12.4856 12.755 12.4541C12.6636 12.5142 12.5713 12.5747 12.4776 12.6358C12.3823 12.6981 12.2667 12.7748 12.1347 12.8634V13.2179C12.2221 13.0433 12.4133 12.8869 12.5616 12.8789C12.6255 12.8755 12.8474 13.0844 13.7617 13.033C14.2055 13.0081 15.0627 12.5263 15.0493 11.9716C15.0412 11.6438 14.8731 11.3882 14.651 11.1905ZM12.1345 12.0469V12.408C12.2154 12.353 12.2952 12.2989 12.3734 12.2462C12.2503 12.159 12.1632 12.0775 12.1345 12.0469ZM14.3384 10.9638C14.2532 10.9125 14.1669 10.8675 14.0842 10.8278C13.6539 10.6223 13.2035 10.5847 13.1094 10.3073C13.043 10.1117 13.2304 9.93071 13.6876 9.93756C14.1447 9.94441 14.5683 10.2217 14.6826 10.321V9.43767C14.649 9.47191 14.5015 9.64424 14.3666 9.61571C14.1078 9.56093 13.6674 9.48948 13.1631 9.49245C12.5849 9.49587 12.0874 9.95103 12.0706 10.5265C12.0471 11.3311 12.6791 11.5502 13.0354 11.6769C13.0722 11.6899 13.1141 11.7038 13.1596 11.7187C13.5013 11.4922 13.7716 11.3179 13.9298 11.225C14.0361 11.1626 14.1752 11.0732 14.3384 10.9638Z" fill="white"/>
</svg>
